<svg xmlns="http://www.w3.org/2000/svg" viewBox="0 0 32 32">
  <rect width="32" height="32" rx="8" fill="#c34b9a"/>
  <g fill="none" stroke="#fff" stroke-linecap="round" stroke-linejoin="round" stroke-width="1.8" transform="translate(4 4) scale(1)" aria-label="Tabler brain icon">
    <path d="M15.5 13a3.5 3.5 0 0 0-3.5 3.5v1a3.5 3.5 0 0 0 7 0v-1.8"/>
    <path d="M8.5 13a3.5 3.5 0 0 1 3.5 3.5v1a3.5 3.5 0 0 1-7 0v-1.8"/>
    <path d="M17.5 16a3.5 3.5 0 0 0 0-7h-.5M19 9.3V6.5a3.5 3.5 0 0 0-7 0"/>
    <path d="M6.5 16a3.5 3.5 0 0 1 0-7H7M5 9.3V6.5a3.5 3.5 0 0 1 7 0v10"/>
  </g>
</svg>
